<svg xmlns="http://www.w3.org/2000/svg" xmlns:xlink="http://www.w3.org/1999/xlink" version="1.1" viewBox="1362.6 281.4 600.9 600.9">
<path transform="translate(0,0)" style="fill: rgb(255,255,255)" stroke-linecap="round" d="M1725.2343 551.6672C1754.5043 549.9622 1780.6743 557.0983 1804.6743 573.7742 1817.8143 582.9013 1838.7943 601.5762 1840.4543 618.0403 1843.0443 643.6202 1830.0143 672.2462 1815.1243 691.8712 1809.9143 698.8243 1804.0343 708.0332 1795.7043 710.3322 1786.8643 708.8392 1786.5743 698.6753 1782.9243 690.3062 1767.0643 654.0202 1750.1743 633.3913 1721.5743 608.0113 1732.2843 586.3293 1731.0643 574.4493 1725.2343 551.6672Z"></path>
<path transform="translate(0,0)" style="fill: rgb(255,255,255)" stroke-linecap="round" d="M1485.4843 532.1803C1493.2643 534.9413 1503.2243 543.3883 1510.9043 548.0873 1538.2143 564.9943 1569.1543 575.1603 1601.1643 577.7453 1601.6843 600.2613 1610.5143 614.1053 1626.6143 628.7363 1619.3343 633.7993 1615.4243 636.2673 1607.5943 640.3403 1578.9943 654.5513 1511.6143 659.6873 1490.2443 628.8563 1475.7543 607.9563 1473.8243 568.4403 1478.0143 544.5613 1479.0843 538.5143 1480.1943 535.5593 1485.4843 532.1803Z"></path>
<path transform="translate(0,0)" style="fill: rgb(255,255,255)" stroke-linecap="round" d="M1705.3143 627.2353L1706.5843 627.8303C1722.6243 662.4263 1711.0243 735.9753 1673.0643 755.7403 1651.9643 766.7283 1615.8643 758.9923 1594.1143 750.7133 1583.3543 746.2293 1564.2543 740.2633 1580.8243 727.7723 1612.3543 703.9933 1635.4843 676.7913 1649.8743 639.4563 1671.7943 643.3153 1687.3043 639.7323 1705.3143 627.2353Z"></path>
<path transform="translate(0,0)" style="fill: rgb(255,255,255)" stroke-linecap="round" d="M1632.3143 386.6153C1643.0343 384.9443 1646.1243 388.6263 1643.4043 399.0963 1632.9843 439.2053 1633.2643 475.0743 1642.4643 515.4473 1622.9743 525.0532 1612.3143 534.9903 1604.3743 555.4243 1597.6543 551.5023 1591.5943 545.9403 1586.0643 540.5393 1566.5543 520.5463 1561.1343 505.6263 1553.1043 479.3822 1536.4843 425.0323 1584.0543 396.9413 1632.3143 386.6153Z"></path>
<path transform="translate(0,0)" style="fill: rgb(255,255,255)" stroke-linecap="round" d="M1753.7243 422.4913C1774.4943 420.8393 1796.0743 436.9413 1809.7443 451.6813 1817.7243 461.0913 1832.8943 476.9213 1833.3243 489.5923 1833.5843 497.4893 1804.4543 497.2223 1798.3743 498.2743 1774.8843 502.3403 1756.0243 509.3942 1734.9643 519.9482 1727.5543 524.1313 1720.8943 528.6572 1713.8443 533.3623 1697.5143 517.3543 1687.4043 512.9162 1664.2443 511.7773 1677.0643 465.9033 1707.3243 434.6393 1753.7243 422.4913Z"></path>
<path transform="translate(0,0)" style="fill: rgb(255,255,255)" stroke-linecap="round" d="M1662.0142 337.7973C1689.7542 338.2333 1710.1642 340.3093 1737.1742 348.5723 1774.0842 359.8163 1807.4342 380.4693 1833.9542 408.5023 1839.5842 414.3593 1855.0742 429.5213 1850.3242 437.7363 1839.3642 454.4053 1823.2342 426.6053 1815.7942 419.3723 1759.2942 364.4603 1687.7642 349.5813 1612.5442 364.9023 1559.0942 379.6983 1516.8242 408.2733 1485.6542 454.8123 1479.9542 463.3133 1471.6942 487.7443 1458.8342 480.3163 1449.3042 473.9123 1457.3042 460.9623 1461.4742 453.9803 1492.0442 402.7173 1540.3442 364.1523 1597.8642 347.4663 1620.0942 341.0193 1639.0742 338.7373 1662.0142 337.7973Z"></path>
<path transform="translate(0,0)" style="fill: rgb(255,255,255)" stroke-linecap="round" d="M1431.2443 559.1903C1436.4143 558.6893 1443.6143 559.9953 1444.4843 565.4893 1445.5943 572.4563 1445.6043 582.1633 1445.9543 589.1683 1452.5043 716.9383 1586.0443 821.5213 1711.9543 790.6073 1721.8043 788.1903 1743.3443 777.6513 1742.0543 797.1643 1741.7943 800.4683 1738.8243 802.6583 1736.3243 804.4813 1587.8743 857.2613 1421.6043 730.2963 1424.2543 572.7533 1424.3743 565.9963 1426.2843 563.3913 1431.2443 559.1903Z"></path>
<path transform="translate(0,0)" style="fill: rgb(255,255,255)" stroke-linecap="round" d="M1660.6043 528.9213C1686.8443 526.2003 1710.3443 545.2123 1713.1643 571.4433 1715.9843 597.6743 1697.0643 621.2493 1670.8443 624.1713 1644.4843 627.1093 1620.7543 608.0623 1617.9143 581.6883 1615.0743 555.3143 1634.2143 531.6563 1660.6043 528.9213Z"></path>
<path transform="translate(0,0)" style="fill: rgb(255,255,255)" stroke-linecap="round" d="M1885.1843 527.2203C1888.6143 526.8553 1896.4543 527.1573 1897.4543 531.4693 1918.8443 623.7223 1872.2743 726.8293 1793.3343 776.7433 1778.6743 777.9473 1777.3343 764.0403 1782.5743 760.4773 1850.3843 714.3913 1890.0743 632.0923 1880.3343 550.2233 1879.0743 539.5713 1876.9642 534.6313 1885.1843 527.2203Z"></path>
<path transform="translate(0,0)" style="fill: rgb(255,255,255)" stroke-linecap="round" d="M1685.3043 310.4393C1693.7443 308.9933 1701.4143 308.4793 1709.9543 308.3493 1837.6543 306.4073 1923.6443 398.4983 1925.5243 523.4873L1922.2443 523.1582C1901.6743 406.4793 1804.4643 316.5483 1685.3043 310.4393Z"></path>
<path transform="translate(0,0)" style="fill: rgb(255,255,255)" stroke-linecap="round" d="M1401.6743 639.1883C1400.5243 638.0073 1418.5443 687.5303 1422.8543 695.4643 1438.9943 725.2033 1453.3443 743.6663 1476.9943 767.5213 1514.8943 805.7593 1547.5043 819.8963 1596.9742 838.1313 1596.2743 838.1573 1595.5843 838.1843 1594.8843 838.2113 1498.1543 832.1683 1416.0843 762.0553 1403.9043 664.3873 1402.7943 655.4953 1401.6543 647.4623 1401.6743 639.1883Z"></path>
<path transform="translate(0,0)" style="stroke: rgb(255,255,255); stroke-opacity: 0; fill: rgb(255,255,255)" stroke-linecap="round" d="M1925.5243 523.4873C1925.3343 528.5403 1925.2143 533.0733 1924.6343 538.1173L1922.2443 523.1583 1925.5243 523.4873Z"></path>
</svg>
