<svg xmlns="http://www.w3.org/2000/svg" xmlns:xlink="http://www.w3.org/1999/xlink" version="1.1" viewBox="95.7 273.7 581.6 581.6">
<path transform="translate(0,0)" style="fill: rgb(255,255,255)" stroke-linecap="round" d="M385.7212 307.5753C389.9852 307.6813 393.8122 307.9253 397.4282 310.4223 410.9752 319.7763 424.3142 332.4273 436.7682 343.3773L500.0262 398.5773 603.2332 489.3033C617.4642 501.8473 634.6142 516.0763 647.1703 529.3323 652.3412 534.7913 652.1282 581.6463 645.3972 585.9433 637.3102 591.1053 604.3952 589.0763 593.8913 589.1583 593.2162 608.0133 593.8623 627.1873 593.6852 646.1033 593.1742 700.5773 594.5082 755.2183 593.3552 809.6493 593.2043 816.7713 587.2022 820.2673 580.7572 820.6553 566.8773 821.4913 552.8642 821.1243 538.9332 821.0803L460.3272 821.1093 460.3572 783.7513 555.5263 783.7473 555.5442 552.1373C563.8523 552.1193 608.7682 553.3643 612.0962 550.3163 610.7722 544.8813 590.2722 528.4913 584.4472 523.3713L538.9142 483.2703 388.4272 351.1243C384.3622 353.6873 365.9302 370.3273 361.3362 374.3513L302.7632 425.6633 208.1852 508.3883C195.5772 519.4233 170.5542 540.0893 160.0872 551.4063 177.6362 552.9763 205.1312 552.1713 223.3592 552.1623L223.3252 783.7753C252.9872 783.6113 282.6492 783.6503 312.3092 783.8913L312.3272 820.8823 309.9142 820.9073 232.7002 821.0513C220.2872 821.0633 207.5072 821.4263 195.1622 820.5483 188.7312 819.1353 185.5072 813.4893 185.3192 807.1343 184.6532 784.6693 185.2042 761.9243 185.1632 739.4243L185.2102 589.0343C120.7442 587.0413 121.4592 602.7623 124.4312 532.4023 128.5092 526.8043 145.8172 512.3843 152.0052 506.9843L205.8402 460.0293 318.1932 361.8613C337.2522 345.2653 356.4352 328.3353 375.8292 312.1203 379.2032 309.2983 381.4772 308.4913 385.7212 307.5753Z"></path>
</svg>
