<svg xmlns="http://www.w3.org/2000/svg" viewBox="0 0 64 64" fill="none" stroke="#ffffff" stroke-width="4" stroke-linecap="round" stroke-linejoin="round">
<path d="M46.7 29.1 L53.8 28.9 L53.8 35.1 L46.7 34.9 L44.4 40.4 L49.6 45.2 L45.2 49.6 L40.4 44.4 L34.9 46.7 L35.1 53.8 L28.9 53.8 L29.1 46.7 L23.6 44.4 L18.8 49.6 L14.4 45.2 L19.6 40.4 L17.3 34.9 L10.2 35.1 L10.2 28.9 L17.3 29.1 L19.6 23.6 L14.4 18.8 L18.8 14.4 L23.6 19.6 L29.1 17.3 L28.9 10.2 L35.1 10.2 L34.9 17.3 L40.4 19.6 L45.2 14.4 L49.6 18.8 L44.4 23.6 Z" />
<circle cx="32" cy="32" r="7" />
</svg>
