<svg xmlns="http://www.w3.org/2000/svg" version="1.1" viewBox="82.00 1029.00 414.00 414.00"><rect fill="#ffffff" x="82" y="1120" width="22" height="7" rx="3"/><path fill="#ffffff" fill-rule="evenodd" d="M 90 1122 H 104 V 1322 H 90 Z M 95 1162 H 99 V 1298 H 95 Z"/><path fill="#ffffff" d="M 92 1322 H 102 L 99 1352 H 95 Z"/><path fill="#ffffff" fill-rule="evenodd" d="M 116 1127 H 462 L 496 1170 V 1271 L 464 1313 H 116 A 8 8 0 0 1 108 1305 V 1135 A 8 8 0 0 1 116 1127 Z M 144 1220 A 70 70 0 1 0 284 1220 A 70 70 0 1 0 144 1220 Z M 318 1220 A 70 70 0 1 0 458 1220 A 70 70 0 1 0 318 1220 Z"/><g fill="#ffffff"><path d="M 210.872 1196.77 C 214.977 1196.07 219.198 1196.5 223.078 1198.01 C 225.787 1199.07 228.269 1200.63 230.392 1202.62 C 233.191 1205.24 235.287 1208.53 236.486 1212.17 C 237.214 1214.37 237.601 1216.68 237.634 1219 C 237.691 1223.03 236.684 1227 234.714 1230.52 C 229.798 1239.29 219.731 1243.83 209.904 1241.7 C 204.701 1240.57 200.055 1237.66 196.763 1233.48 C 191.776 1227.14 190.493 1218.65 193.386 1211.12 C 196.28 1203.59 202.923 1198.14 210.872 1196.77 Z"/><path d="M 182.503 1214.27 C 185.147 1214.01 185.237 1213.77 187.654 1214.71 C 189.513 1218.13 189.332 1223.42 190.993 1228.85 L 191.354 1230 C 185.931 1235.4 178.811 1242.77 176.166 1249.98 C 174.266 1255.16 174.452 1257.85 171.734 1263.35 L 170.252 1263.61 L 166.845 1260.9 C 157.911 1250.11 155.149 1243.9 152.201 1230.2 C 161.225 1218.84 168.803 1216.4 182.503 1214.27 Z"/><path d="M 196.763 1233.48 C 200.055 1237.66 204.701 1240.57 209.904 1241.7 L 209.948 1244.56 C 209.48 1264.5 220.254 1269.54 220.997 1279.13 C 215.693 1286.92 193.697 1278.81 186.491 1275.07 C 184.249 1261.79 185.255 1246.43 196.145 1236.86 L 196.763 1233.48 Z"/><path d="M 240.535 1219.08 C 255.744 1215.72 263.12 1207.69 272.211 1196.18 C 278.533 1211.51 277.678 1219.24 274.503 1235.32 C 260.386 1239.2 249.771 1239.97 235.805 1233.92 L 234.714 1230.52 C 236.684 1227 237.691 1223.03 237.634 1219 L 240.535 1219.08 Z"/><path d="M 180.786 1166.7 C 195.933 1158.94 201.018 1158.03 218.002 1157.52 C 224.804 1167.53 229.694 1183.46 224.469 1195.08 L 223.078 1198.01 C 219.198 1196.5 214.977 1196.07 210.872 1196.77 L 210.25 1194.4 C 200.397 1179.11 199.024 1174.3 180.786 1166.7 Z"/><path d="M 231.218 1239.2 C 231.274 1239.22 231.331 1239.24 231.388 1239.25 C 245.888 1248.48 252.079 1249.38 268.853 1250.29 C 262.924 1259.92 259.462 1263.56 250.703 1270.56 C 247.647 1272.63 244.69 1273.79 241.33 1275.3 C 225.855 1267.28 222.138 1260.75 216.963 1244.83 C 223.716 1243.03 224.964 1242.68 231.218 1239.2 Z"/><path d="M 234.444 1160.28 C 250.204 1166.62 253.219 1169.35 264.35 1182.32 C 259.843 1193.99 252.6 1207.8 239.904 1211.99 L 236.486 1212.17 C 235.287 1208.53 233.191 1205.24 230.392 1202.62 L 231.093 1199.48 C 237.768 1183.58 237.656 1177.09 234.444 1160.28 Z"/><path d="M 168.859 1176.97 C 185.91 1179.8 191.791 1183.75 202.922 1196.68 C 193.222 1202.62 195.878 1207.34 183.696 1205.32 C 168.161 1204.39 165.113 1208.66 154.245 1208.63 C 147.954 1203.06 164.236 1181.96 168.859 1176.97 Z"/></g><g fill="#ffffff" transform="translate(174 0)"><path d="M 210.872 1196.77 C 214.977 1196.07 219.198 1196.5 223.078 1198.01 C 225.787 1199.07 228.269 1200.63 230.392 1202.62 C 233.191 1205.24 235.287 1208.53 236.486 1212.17 C 237.214 1214.37 237.601 1216.68 237.634 1219 C 237.691 1223.03 236.684 1227 234.714 1230.52 C 229.798 1239.29 219.731 1243.83 209.904 1241.7 C 204.701 1240.57 200.055 1237.66 196.763 1233.48 C 191.776 1227.14 190.493 1218.65 193.386 1211.12 C 196.28 1203.59 202.923 1198.14 210.872 1196.77 Z"/><path d="M 182.503 1214.27 C 185.147 1214.01 185.237 1213.77 187.654 1214.71 C 189.513 1218.13 189.332 1223.42 190.993 1228.85 L 191.354 1230 C 185.931 1235.4 178.811 1242.77 176.166 1249.98 C 174.266 1255.16 174.452 1257.85 171.734 1263.35 L 170.252 1263.61 L 166.845 1260.9 C 157.911 1250.11 155.149 1243.9 152.201 1230.2 C 161.225 1218.84 168.803 1216.4 182.503 1214.27 Z"/><path d="M 196.763 1233.48 C 200.055 1237.66 204.701 1240.57 209.904 1241.7 L 209.948 1244.56 C 209.48 1264.5 220.254 1269.54 220.997 1279.13 C 215.693 1286.92 193.697 1278.81 186.491 1275.07 C 184.249 1261.79 185.255 1246.43 196.145 1236.86 L 196.763 1233.48 Z"/><path d="M 240.535 1219.08 C 255.744 1215.72 263.12 1207.69 272.211 1196.18 C 278.533 1211.51 277.678 1219.24 274.503 1235.32 C 260.386 1239.2 249.771 1239.97 235.805 1233.92 L 234.714 1230.52 C 236.684 1227 237.691 1223.03 237.634 1219 L 240.535 1219.08 Z"/><path d="M 180.786 1166.7 C 195.933 1158.94 201.018 1158.03 218.002 1157.52 C 224.804 1167.53 229.694 1183.46 224.469 1195.08 L 223.078 1198.01 C 219.198 1196.5 214.977 1196.07 210.872 1196.77 L 210.25 1194.4 C 200.397 1179.11 199.024 1174.3 180.786 1166.7 Z"/><path d="M 231.218 1239.2 C 231.274 1239.22 231.331 1239.24 231.388 1239.25 C 245.888 1248.48 252.079 1249.38 268.853 1250.29 C 262.924 1259.92 259.462 1263.56 250.703 1270.56 C 247.647 1272.63 244.69 1273.79 241.33 1275.3 C 225.855 1267.28 222.138 1260.75 216.963 1244.83 C 223.716 1243.03 224.964 1242.68 231.218 1239.2 Z"/><path d="M 234.444 1160.28 C 250.204 1166.62 253.219 1169.35 264.35 1182.32 C 259.843 1193.99 252.6 1207.8 239.904 1211.99 L 236.486 1212.17 C 235.287 1208.53 233.191 1205.24 230.392 1202.62 L 231.093 1199.48 C 237.768 1183.58 237.656 1177.09 234.444 1160.28 Z"/><path d="M 168.859 1176.97 C 185.91 1179.8 191.791 1183.75 202.922 1196.68 C 193.222 1202.62 195.878 1207.34 183.696 1205.32 C 168.161 1204.39 165.113 1208.66 154.245 1208.63 C 147.954 1203.06 164.236 1181.96 168.859 1176.97 Z"/></g><path fill="#ffffff" d="M 153 1313 H 168 V 1337 H 153 Z"/><path fill="#ffffff" d="M 176 1313 H 334 L 320 1339 H 176 Z"/></svg>
