<svg xmlns="http://www.w3.org/2000/svg" version="1.1" viewBox="1072.95 586.40 341.42 341.42"><path fill="#fff" d="M 1353.23 712.284 C 1362.47 712.914 1372.11 713.299 1381.15 715.141 C 1381.04 742.176 1384.14 754.015 1394.39 779.116 C 1403.13 800.501 1394.8 827.121 1387.73 846.885 C 1358.45 928.627 1285.87 908.391 1320.59 823.107 C 1329.32 801.669 1344.33 766.557 1373.44 769 C 1377.84 769.455 1387.47 774.437 1388.91 774.245 C 1384.93 769.804 1375.4 765.27 1369.57 765.331 C 1330.16 765.74 1312.24 826.927 1307.53 858.109 C 1304.24 879.856 1310.65 889.762 1328.75 899.15 C 1307.71 901.222 1293.56 894.995 1273.56 896.979 C 1263.37 897.989 1250.41 906.551 1240.24 909.13 C 1207.4 918.893 1178.02 920.494 1144.19 920.193 C 1131.12 931.717 1087.91 931.687 1088.69 909.623 C 1089.16 896.537 1128.02 900.239 1136.25 902.831 C 1140.29 904.105 1142.31 906.798 1144.34 909.921 C 1182.03 910.198 1232.76 908.64 1264.95 886.695 L 1264.69 886.113 C 1237.49 870.711 1240.5 838.157 1246.64 811.995 C 1254.84 777.064 1282.87 716.745 1328.78 733.893 C 1334.85 736.159 1341.37 738.975 1347.16 742.037 C 1325.13 759.317 1299.81 779.129 1295.99 809.295 C 1295.68 811.929 1295.44 814.571 1295.28 817.218 C 1302.97 800.399 1303.69 793.293 1314.92 777.13 C 1327.81 758.571 1350.04 752.696 1352.86 731.713 C 1353.53 726.656 1353.28 717.508 1353.23 712.284 z"/><path fill="#fff" d="M 1129.14 722.859 C 1135.84 723.441 1151.07 725.654 1156.3 725.396 L 1157.29 745.834 C 1154.11 748.68 1151.99 750.285 1149.55 753.742 L 1150.98 754.883 C 1167.54 737.299 1187.76 740.405 1204.47 757.176 C 1224.5 777.29 1230.06 813.097 1230.2 840.163 C 1229.96 865.625 1220.7 882.674 1195.84 890.805 C 1193.41 891.326 1191.77 891.204 1190.32 892.648 C 1177.88 893.748 1173.66 891.031 1166.22 891.594 C 1167 893.002 1166.81 892.257 1166.81 893.82 C 1123.4 898.795 1107.79 854.509 1103.99 819.783 C 1100.45 787.527 1104.86 771.37 1134.87 756.059 C 1129.5 766.024 1126.5 778.5 1125.61 758.304 C 1127.06 746.518 1128.24 734.7 1129.14 722.859 z M 1176.69 774.057 C 1158.22 790.111 1172.66 854.116 1196.08 857.796 C 1215.55 842.712 1203.96 779.368 1176.69 774.057 z"/><path fill="#fff" d="M 1176.94 777.588 C 1199.86 784.106 1208.37 837.898 1195.79 854.208 C 1174.88 850.856 1165.86 795.281 1176.94 777.588 z"/><path fill="#fff" d="M 1244.69 587.372 C 1267.43 583.5 1306.99 591.649 1326.87 603.58 C 1361.44 624.315 1372.88 645.65 1383.05 682.472 C 1369.23 680.132 1359.63 678.858 1345.68 679.001 C 1341.73 663.174 1334.43 648.38 1324.26 635.623 C 1306.75 613.753 1285.9 603.163 1258.43 600.102 C 1245.36 599.939 1237.09 600.688 1224.34 604.459 C 1192.28 614.045 1165.39 636.087 1149.71 665.652 C 1145.01 674.518 1142 682.34 1138.01 691.367 C 1137.01 693.641 1134.97 693.997 1133.05 694.368 C 1130.1 693.159 1130.98 693.933 1129.16 691.529 C 1130.27 675.695 1145.94 648.888 1155.74 636.513 C 1177.94 608.47 1209.37 591.638 1244.69 587.372 z"/><path fill="#fff" d="M 1140.87 695.896 C 1145.72 672.939 1164.64 647.055 1181.95 631.875 C 1237.11 583.49 1307.74 598.666 1337.69 665.83 C 1339.72 670.395 1340.65 673.376 1341.54 678.453 L 1340.79 679.893 L 1337.9 680.689 C 1334.77 678.207 1333.01 670.77 1331.01 666.83 C 1327.07 659.088 1321 644.804 1314.39 639.048 C 1277.78 607.17 1214.84 627.857 1187.67 662.673 C 1179.08 673.675 1171.95 688.626 1166.04 700.55 C 1157.68 698.851 1149.29 697.3 1140.87 695.896 z"/><path fill="#fff" d="M 1348.71 682.269 C 1360.88 681.987 1373.37 684.656 1385.31 686.961 C 1386.43 695.452 1389.04 703.323 1386.83 711.217 C 1384.16 713.329 1384.57 712.555 1379.96 712.209 C 1367.04 710.025 1355.34 708.77 1342.43 711.38 C 1340.76 702.729 1339.18 694.062 1337.69 685.38 L 1348.71 682.269 z"/><path fill="#fff" d="M 1140.87 695.896 C 1149.29 697.3 1157.68 698.851 1166.04 700.55 L 1166.2 703.448 C 1164.74 710.387 1163.77 717.707 1159.44 723.398 C 1157.59 724.272 1157.42 724.014 1156.3 725.396 C 1151.07 725.654 1135.84 723.441 1129.14 722.859 L 1127.71 720.126 L 1124.83 718.177 C 1121.7 712.128 1124.91 703.885 1126.61 697.077 L 1139.73 698.484 L 1140.87 695.896 z"/></svg>
