<svg xmlns="http://www.w3.org/2000/svg" version="1.1" viewBox="1082.00 107.00 382.00 382.00"><path fill="#ffffff" fill-rule="evenodd" d="M 1140 215 H 1403 L 1464 294 V 366 Q 1464 381 1449 381 H 1097 Q 1082 381 1082 366 V 294 Z M 1088 294 V 373 H 1456 V 294 Z M 1140 228 L 1107 281 L 1116 286 L 1149 233 Z M 1403 228 L 1394 233 L 1427 286 L 1436 281 Z M 1298.5 272 a 5.5 5.5 0 1 0 11 0 a 5.5 5.5 0 1 0 -11 0 Z M 1324.5 272 a 5.5 5.5 0 1 0 11 0 a 5.5 5.5 0 1 0 -11 0 Z M 1350.5 272 a 5.5 5.5 0 1 0 11 0 a 5.5 5.5 0 1 0 -11 0 Z M 1375.5 272 a 5.5 5.5 0 1 0 11 0 a 5.5 5.5 0 1 0 -11 0 Z"></path><path fill="#ffffff" fill-rule="evenodd" d="M 1095 301 H 1449 V 367 H 1095 Z M 1110 316 V 356 H 1176 V 316 Z M 1197 316 V 356 H 1263 V 316 Z M 1283 316 V 356 H 1349 V 316 Z M 1369 316 V 356 H 1435 V 316 Z"></path><path fill="#ffffff" d="M 1115 321 H 1171 V 351 H 1157 V 340 H 1149 V 351 H 1137 V 340 H 1129 V 351 H 1115 Z"></path><path fill="#ffffff" d="M 1202 321 H 1258 V 351 H 1244 V 340 H 1236 V 351 H 1224 V 340 H 1216 V 351 H 1202 Z"></path><path fill="#ffffff" d="M 1288 321 H 1344 V 351 H 1330 V 340 H 1322 V 351 H 1310 V 340 H 1302 V 351 H 1288 Z"></path><path fill="#ffffff" d="M 1374 321 H 1430 V 351 H 1416 V 340 H 1408 V 351 H 1396 V 340 H 1388 V 351 H 1374 Z"></path></svg>
