<svg xmlns="http://www.w3.org/2000/svg" viewBox="67.00 524.50 441.00 441.00"><path fill="#ffffff" fill-rule="evenodd" d="M 283 608 h 10 v 73 h -10 z M 81 681 h 413 a 14 14 0 0 1 14 14 v 173 a 14 14 0 0 1 -14 14 h -413 a 14 14 0 0 1 -14 -14 v -173 a 14 14 0 0 1 14 -14 z M 82.0 700 h 22.7 v 22 h -22.7 z M 137.5 700 h 22.7 v 22 h -22.7 z M 165.2 700 h 22.7 v 22 h -22.7 z M 192.9 700 h 22.7 v 22 h -22.7 z M 220.7 700 h 22.7 v 22 h -22.7 z M 262.3 700 h 22.7 v 22 h -22.7 z M 290.0 700 h 22.7 v 22 h -22.7 z M 317.7 700 h 22.7 v 22 h -22.7 z M 345.5 700 h 22.7 v 22 h -22.7 z M 387.1 700 h 22.7 v 22 h -22.7 z M 414.8 700 h 22.7 v 22 h -22.7 z M 442.5 700 h 22.7 v 22 h -22.7 z M 470.3 700 h 22.7 v 22 h -22.7 z M 82.0 728 h 22.7 v 22 h -22.7 z M 109.7 728 h 22.7 v 22 h -22.7 z M 137.5 728 h 22.7 v 22 h -22.7 z M 165.2 728 h 22.7 v 22 h -22.7 z M 192.9 728 h 22.7 v 22 h -22.7 z M 220.7 728 h 22.7 v 22 h -22.7 z M 248.4 728 h 22.7 v 22 h -22.7 z M 276.1 728 h 22.7 v 22 h -22.7 z M 303.9 728 h 22.7 v 22 h -22.7 z M 331.6 728 h 22.7 v 22 h -22.7 z M 359.3 728 h 22.7 v 22 h -22.7 z M 387.1 728 h 22.7 v 22 h -22.7 z M 414.8 728 h 22.7 v 22 h -22.7 z M 442.5 728 h 50.5 v 22 h -50.5 z M 82.0 756 h 36.6 v 22 h -36.6 z M 123.6 756 h 22.7 v 22 h -22.7 z M 151.3 756 h 22.7 v 22 h -22.7 z M 179.1 756 h 22.7 v 22 h -22.7 z M 206.8 756 h 22.7 v 22 h -22.7 z M 234.5 756 h 22.7 v 22 h -22.7 z M 262.3 756 h 22.7 v 22 h -22.7 z M 290.0 756 h 22.7 v 22 h -22.7 z M 317.7 756 h 22.7 v 22 h -22.7 z M 345.5 756 h 22.7 v 22 h -22.7 z M 373.2 756 h 22.7 v 22 h -22.7 z M 400.9 756 h 22.7 v 22 h -22.7 z M 428.7 756 h 22.7 v 22 h -22.7 z M 82.0 784 h 43.5 v 22 h -43.5 z M 130.5 784 h 22.7 v 22 h -22.7 z M 158.3 784 h 22.7 v 22 h -22.7 z M 186.0 784 h 22.7 v 22 h -22.7 z M 213.7 784 h 22.7 v 22 h -22.7 z M 241.5 784 h 22.7 v 22 h -22.7 z M 269.2 784 h 22.7 v 22 h -22.7 z M 296.9 784 h 22.7 v 22 h -22.7 z M 324.7 784 h 22.7 v 22 h -22.7 z M 352.4 784 h 22.7 v 22 h -22.7 z M 380.1 784 h 22.7 v 22 h -22.7 z M 407.9 784 h 22.7 v 22 h -22.7 z M 435.6 784 h 22.7 v 22 h -22.7 z M 456.4 756 H 493.0 V 806 H 463.3 V 778 H 456.4 z M 82.0 812 h 29.7 v 22 h -29.7 z M 116.7 812 h 22.7 v 22 h -22.7 z M 144.4 812 h 22.7 v 22 h -22.7 z M 172.1 812 h 22.7 v 22 h -22.7 z M 199.9 812 h 22.7 v 22 h -22.7 z M 227.6 812 h 22.7 v 22 h -22.7 z M 255.3 812 h 22.7 v 22 h -22.7 z M 283.1 812 h 22.7 v 22 h -22.7 z M 310.8 812 h 22.7 v 22 h -22.7 z M 338.5 812 h 22.7 v 22 h -22.7 z M 366.3 812 h 22.7 v 22 h -22.7 z M 394.0 812 h 22.7 v 22 h -22.7 z M 421.7 812 h 71.3 v 22 h -71.3 z M 82.0 840 h 29.7 v 22 h -29.7 z M 116.7 840 h 29.7 v 22 h -29.7 z M 151.3 840 h 29.7 v 22 h -29.7 z M 186.0 840 h 168.3 v 22 h -168.3 z M 359.3 840 h 29.7 v 22 h -29.7 z M 394.0 840 h 29.7 v 22 h -29.7 z M 428.7 840 h 29.7 v 22 h -29.7 z M 463.3 840 h 29.7 v 22 h -29.7 z"/></svg>
