<svg xmlns="http://www.w3.org/2000/svg" version="1.1" viewBox="1084.00 1047.50 326.00 326.00"><path fill="#fff" fill-rule="evenodd" d="
M1090 1048 H1404 Q1410 1048 1410 1054 V1367 Q1410 1373 1404 1373 H1090 Q1084 1373 1084 1367 V1054 Q1084 1048 1090 1048 Z
M1196 1104 H1286 V1207 H1196 Z
M1295 1277 H1357 V1339 H1295 Z
M1093 1057 H1120 V1087 H1093 Z
M1093 1097 H1120 V1127 H1093 Z
M1093 1137 H1120 V1167 H1093 Z
M1093 1177 H1120 V1207 H1093 Z
M1093 1217 H1120 V1247 H1093 Z
M1154 1085 H1160 V1205 H1154 Z
M1165 1095 H1171 V1195 H1165 Z
M1312 1062 H1320 V1258 H1312 Z
M1325 1062 H1333 V1258 H1325 Z
M1338 1062 H1346 V1258 H1338 Z
M1351 1062 H1359 V1258 H1351 Z
M1385 1151 H1402 V1226 H1385 Z
M1138 1268 H1250 V1283 H1138 Z
M1138 1295 H1171 V1311 H1138 Z
M1138 1322 H1171 V1338 H1138 Z
M1138 1348 H1275 V1361 H1138 Z
M1374 1294 H1385 V1313 H1374 Z
M1391 1294 H1402 V1313 H1391 Z
M1374 1317 H1385 V1336 H1374 Z
M1391 1317 H1402 V1336 H1391 Z
M1374 1340 H1385 V1359 H1374 Z
M1391 1340 H1402 V1359 H1391 Z
M1203.5 1306 a8 8 0 1 0 16 0 a8 8 0 1 0 -16 0 Z
M1105.5 1305 a6.5 6.5 0 1 0 13 0 a6.5 6.5 0 1 0 -13 0 Z
M1149.5 1247 a6.5 6.5 0 1 0 13 0 a6.5 6.5 0 1 0 -13 0 Z
M1100.5 1354 a6.5 6.5 0 1 0 13 0 a6.5 6.5 0 1 0 -13 0 Z
M1102 1269 a6 6 0 1 0 12 0 a6 6 0 1 0 -12 0 Z
M1376 1136 a6 6 0 1 0 12 0 a6 6 0 1 0 -12 0 Z
M1376 1118 a6 6 0 1 0 12 0 a6 6 0 1 0 -12 0 Z
M1387.5 1068 a5.5 5.5 0 1 0 11 0 a5.5 5.5 0 1 0 -11 0 Z
"/></svg>
