<svg xmlns="http://www.w3.org/2000/svg" version="1.1" viewBox="592.01 593.20 333.40 333.40"><path fill="rgb(255,255,255)" fill-rule="evenodd" d="M 773.8 593.2 C 792.9 600.1 827.6 613.6 837.1 632.8 C 841.6 642 842.2 651.7 843.4 661.5 C 849.4 709.1 830 748.9 825.6 795.3 C 822.6 827.2 824.7 852.8 833.8 883.5 C 809.9 926.1 757.9 938.1 715.6 915.1 C 691 901.8 673.5 873.3 665.8 847.2 C 658.8 823 667.4 795.4 671.2 770.6 C 672.8 763.5 673.9 755.8 672.6 748.8 C 669.8 740.8 668.3 717 668.6 708.1 C 671 706.5 671.6 706.3 672.6 704.7 C 677.3 675.8 665 636.4 695.6 616.6 C 711.6 606.4 724.7 599.4 743 593.9 C 742.6 612.5 740.6 631.7 740.3 649.8 C 739.8 680 740.7 717 744.9 746.9 C 752.4 752.5 754.5 755.1 759.5 762.4 C 764.4 755 767 751.3 773.7 745.2 C 774.9 729.5 776.4 713.1 776.8 697.4 C 778 662.4 775.6 628 773.8 593.2 Z M 682.5 684 C 686.7 698.5 686.6 717 688.4 732 C 692.2 764.7 698.7 843.5 686.6 875 C 683 866 693.2 817.3 686.8 807.7 C 689.8 795.3 687 773.2 686.1 761.9 C 684.1 736.3 680.9 709.7 682.5 684 Z"></path><path fill="rgb(255,255,255)" fill-rule="evenodd" d="M 746 626 A 13 13 0 0 1 772 626 L 772 696 A 13 13 0 0 1 746 696 Z M 750 644 A 9 9 0 0 1 768 644 L 768 677 A 9 9 0 0 1 750 677 Z"></path><path fill="rgb(255,255,255)" d="M 747 712 L 771 712 C 771 726 771 738 766 745 L 759 751 L 752 745 C 747 738 747 726 747 712 Z"></path><path fill="rgb(255,255,255)" d="M 842.3 733.7 C 845.5 743.1 844.5 758.7 846.4 769 C 854.2 811 861 838.8 838.4 877.6 L 835.4 876.7 C 823.2 839.5 829.1 770.3 842.3 733.7 Z"></path></svg>
