<svg xmlns="http://www.w3.org/2000/svg" version="1.1" viewBox="123.96 137.93 302.03 302.03"><path transform="translate(0,0)" fill="rgb(0,0,0)" d="M 407.862 203.138 C 411.217 207.937 409.659 365.956 409.564 384.687 C 366.558 403.774 323.263 422.201 279.693 439.961 L 279.229 439.729 C 276.781 436.144 277.909 402.173 277.916 395 C 278.108 350.303 278.037 305.606 277.703 260.911 C 320.71 242.493 364.923 222.224 407.862 203.138 z"></path><path transform="translate(0,0)" fill="rgb(0,0,0)" d="M 140.702 201.311 C 150.229 204.795 160.505 209.741 169.746 214.115 C 203.037 229.873 236.979 244.817 269.984 261.127 C 269.382 319.248 271.657 382.232 269.317 439.933 L 139.986 381.992 L 139.894 273.221 C 139.885 250.181 139.44 224.165 140.702 201.311 z"></path><path transform="translate(0,0)" fill="rgb(0,0,0)" d="M 272.315 137.928 C 276.668 138.81 305.413 151.75 311.901 154.589 L 405.605 195.436 C 362.753 215.112 319.643 234.218 276.285 252.751 L 274.452 253.439 C 267.931 252.434 155.544 199.454 144.901 193.553 C 183.794 178.569 233.784 155.339 272.315 137.928 z"></path></svg>
