<svg xmlns="http://www.w3.org/2000/svg" version="1.1" viewBox="1538.00 1010.50 451.00 451.00"><path fill="#FFFFFF" fill-rule="evenodd" d="
M1538 1159 L1989 1159 L1989 1236 L1973 1236 L1973 1254 L1989 1254 L1989 1313 L1781 1313 L1781 1291 L1771 1291 L1771 1313 L1538 1313 L1538 1254 L1555 1254 L1555 1236 L1538 1236 Z
M1560 1169 L1695 1169 L1719 1187 L1809 1187 L1833 1169 L1968 1169 L1930 1197 L1850 1197 L1822 1215 L1712 1215 L1684 1197 L1598 1197 Z
M1544 1264 h12 v17 h-12 Z
M1971 1264 h12 v17 h-12 Z
M1544.5 1296 a6 6 0 1 0 12 0 a6 6 0 1 0 -12 0 Z
M1970.5 1296 a6 6 0 1 0 12 0 a6 6 0 1 0 -12 0 Z
M1560 1296 h8 v13 h-8 Z M1573 1296 h8 v13 h-8 Z M1586 1296 h8 v13 h-8 Z M1599 1296 h8 v13 h-8 Z
M1612 1296 h8 v13 h-8 Z M1625 1296 h8 v13 h-8 Z M1638 1296 h8 v13 h-8 Z M1651 1296 h8 v13 h-8 Z
M1664 1296 h8 v13 h-8 Z M1677 1296 h8 v13 h-8 Z M1690 1296 h8 v13 h-8 Z M1703 1296 h8 v13 h-8 Z
M1716 1296 h8 v13 h-8 Z M1729 1296 h8 v13 h-8 Z M1742 1296 h8 v13 h-8 Z M1755 1296 h8 v13 h-8 Z
M1786 1296 h8 v13 h-8 Z M1799 1296 h8 v13 h-8 Z M1812 1296 h8 v13 h-8 Z M1825 1296 h8 v13 h-8 Z
M1838 1296 h8 v13 h-8 Z M1851 1296 h8 v13 h-8 Z M1864 1296 h8 v13 h-8 Z M1877 1296 h8 v13 h-8 Z
M1890 1296 h8 v13 h-8 Z M1903 1296 h8 v13 h-8 Z M1916 1296 h8 v13 h-8 Z M1929 1296 h8 v13 h-8 Z
M1942 1296 h8 v13 h-8 Z M1955 1296 h8 v13 h-8 Z
"/></svg>
