<svg xmlns="http://www.w3.org/2000/svg" viewBox="359 307 1324 1324" width="1024" height="1024">
  <defs>
    <linearGradient id="ring" gradientUnits="userSpaceOnUse" x1="400" y1="974" x2="1638" y2="974">
      <stop offset="0" stop-color="rgb(58,223,250)"/>
      <stop offset="0.25" stop-color="rgb(97,138,253)"/>
      <stop offset="0.5" stop-color="rgb(135,80,251)"/>
      <stop offset="0.75" stop-color="rgb(172,65,253)"/>
      <stop offset="1" stop-color="rgb(252,66,243)"/>
    </linearGradient>
  </defs>

  <path fill="rgb(27,33,42)" fill-rule="evenodd" d="M 470.129,307.78268 C 497.892,307.0446415384615 527.963,307.5617446153846 555.866,307.5674584615385 L 711.303,307.5960276923077 L 1184.76,307.5703153846154 L 1448.51,307.5560307692308 L 1530.36,307.5198430769231 C 1570.2,307.50746307692316 1601.97,303.78679692307696 1635.06,329.28578769230774 C 1657.14,346.11116000000004 1671.21,370.6778415384616 1674.1,397.4719707692308 C 1676.0,415.9800707692308 1674.96,445.3330507692308 1674.92,464.87440461538466 L 1674.8,579.3789292307692 L 1674.77,954.1596215384616 L 1674.73,1347.3046153846153 L 1674.79,1471.571246153846 C 1674.79,1488.646123076923 1675.75,1520.5103384615384 1674.22,1536.5948153846152 C 1672.38,1557.8312769230768 1663.65,1578.0106769230767 1649.26,1594.3237076923078 C 1628.66,1617.7028615384615 1604.39,1627.3021230769232 1573.23,1629.8828769230768 C 1492.63,1631.4637076923077 1406.95,1630.0161999999998 1325.83,1630.0162 L 844.452,1630.006676923077 L 589.242,1630.006676923077 L 510.25,1630.0733384615387 C 494.684,1630.0828615384617 474.853,1630.5971076923079 459.821,1629.0924615384615 C 439.454,1626.9116769230768 420.239,1618.9694307692307 404.649,1606.3037384615386 C 383.44,1588.9431692307694 368.22,1562.5642461538462 367.167,1535.9662923076921 C 366.202,1511.5776923076921 366.742,1484.8559384615385 366.77,1460.276876923077 L 366.8,1322.468430769231 L 366.743,885.5029984615385 L 366.761,554.3075246153846 L 366.766,452.6267753846154 C 366.77,438.8716430769231 365.985,411.40899384615386 367.363,398.8442461538462 C 369.821,377.5677876923077 379.068,357.5207584615385 393.859,341.40390307692314 C 414.784,318.80183230769234 439.297,309.59016 470.129,307.78268 M 401 974 a 618 618 0 1 0 1236 0 a 618 618 0 1 0 -1236 0 Z"/>
  <path fill="rgb(18,20,24)" d="M 581.213,358.2883184615385 C 623.935,357.0027030769231 668.071,358.7216184615385 710.922,358.3254584615385 C 715.645,358.28165230769235 725.555,359.5377461538462 727.316,364.38213538461537 C 726.213,367.5914123076923 723.28,371.5273 720.276,373.14908 C 619.297,427.67917076923084 546.237,491.0523907692308 478.367,582.2063307692308 C 468.101,596.8013984615384 458.358,611.7250123076923 449.155,626.9495553846153 C 444.061,635.4727092307692 433.236,656.0330323076923 427.379,662.4363492307692 C 423.393,664.0152753846154 425.305,663.9724215384616 421.472,663.0096384615384 C 420.214,661.7878276923077 417.928,659.2699261538462 417.833,657.341503076923 C 415.509,610.1213261538462 416.97,561.2660369230769 416.933,513.8173061538462 C 416.93,510.35662 418.379,502.12582461538466 420.036,500.7126 C 431.31,491.10000615384615 463.809,496.76338000000004 480.327,494.36166000000003 C 522.377,488.2497492307692 547.405,462.5498215384615 556.394,423.61472153846154 C 560.665,405.11709692307693 554.89,378.03918 562.983,363.6840938461539 C 565.653,358.9501723076924 575.786,358.518776923077 581.213,358.2883184615385"/>
  <path fill="rgb(18,20,24)" d="M 1329.39,358.2273707692308 C 1347.56,357.7302661538462 1472.67,356.0561092307692 1479.16,360.24816769230773 C 1488.17,366.0658153846154 1484.88,413.59644461538466 1487.77,427.4172861538462 C 1491.14,443.4989061538462 1498.96,458.5634615384616 1511.07,470.28256 C 1552.55,510.4299476923077 1600.82,485.7480369230769 1620.07,499.26985384615386 C 1623.31,501.54967846153846 1623.48,504.70181692307693 1623.84,508.20440461538465 C 1626.28,531.5978430769231 1624.34,560.8774953846154 1624.3,584.9851646153846 C 1624.26,606.5158892307692 1626.15,636.0374276923077 1623.44,656.3282476923077 C 1623.1,658.8766230769231 1622.49,660.3946015384615 1620.74,662.4268261538462 C 1617.7,664.0905076923077 1617.27,663.7305353846155 1613.78,663.4572230769231 C 1610.26,659.3927738461539 1601.44,642.927373846154 1598.34,637.43732 C 1591.54,625.3744384615384 1584.39,613.4924953846154 1576.9,601.8057753846155 C 1546.04,554.7741553846154 1509.0,511.6860415384616 1466.68,473.5851630769231 C 1433.69,443.54652153846155 1397.64,416.72001384615385 1359.05,393.50751384615387 C 1349.5,387.83080769230776 1320.53,374.5204030769231 1316.93,366.1753307692308 C 1317.59,358.8073261538462 1322.9,358.77685230769237 1329.39,358.2273707692308"/>
  <path fill="rgb(18,20,24)" d="M 421.016,1278.3765846153847 C 430.024,1278.5860923076923 433.611,1287.7853846153848 437.297,1294.7467538461538 C 445.044,1309.3932461538461 453.098,1323.125523076923 462.342,1336.972076923077 C 513.946,1415.080353846154 581.929,1482.199 662.035,1534.1378615384615 C 679.887,1545.6798307692306 698.878,1555.4124153846153 717.466,1565.7259076923078 C 722.199,1568.3542769230771 724.843,1570.4017384615386 725.922,1575.2299384615385 C 725.12,1578.3535076923076 723.688,1578.9725076923078 721.016,1581.0009230769233 C 704.902,1583.0293384615386 677.827,1581.4389846153847 658.646,1581.6484923076923 C 644.749,1581.8103846153847 571.067,1583.438830769231 561.641,1578.8677538461538 C 551.201,1573.7919538461538 557.533,1528.8716 553.659,1512.5871384615384 C 545.038,1473.9710615384615 516.926,1447.8206923076923 475.433,1443.1924769230768 C 460.564,1441.5354615384615 417.436,1448.7729999999997 416.925,1429.936353846154 C 415.645,1382.7876 415.599,1335.3150615384618 416.834,1288.1948769230771 C 416.937,1284.2428000000002 418.595,1281.404923076923 421.016,1278.3765846153847"/>
  <path fill="rgb(18,20,24)" d="M 1613.9,1278.4718153846156 C 1616.98,1278.538476923077 1617.1,1278.5480000000002 1620.08,1279.2812769230768 C 1623.64,1282.661969230769 1623.99,1287.233046153846 1624.0,1291.9564923076923 C 1624.08,1337.2863384615384 1624.06,1382.6923692307691 1623.87,1428.0126923076923 C 1623.85,1432.821846153846 1622.34,1437.2119846153846 1617.71,1439.4403846153846 C 1613.25,1441.583076923077 1608.07,1442.4020615384613 1603.08,1442.5258615384614 C 1592.33,1442.611569230769 1581.73,1442.4401538461539 1570.99,1442.8496461538462 C 1528.37,1444.4971384615385 1493.89,1474.5710153846155 1487.06,1514.4250923076925 C 1484.31,1530.3476769230772 1485.92,1546.8702153846154 1485.16,1562.9642153846153 C 1484.86,1567.9733538461537 1483.38,1575.3537384615383 1479.23,1578.9725076923078 C 1477.14,1580.7914153846154 1471.99,1581.2580461538464 1469.23,1581.353276923077 C 1452.67,1581.9341846153848 1435.64,1581.7056307692308 1419.04,1581.6865846153846 L 1325.75,1581.505646153846 C 1321.19,1580.886646153846 1318.46,1579.6867384615384 1316.87,1575.5632461538462 C 1318.46,1566.8020153846153 1342.52,1556.7361230769231 1351.01,1551.9460153846153 C 1366.43,1543.0895538461536 1381.48,1533.6426615384614 1396.12,1523.652953846154 C 1465.85,1475.4757076923079 1525.58,1415.3946153846155 1572.28,1346.4475384615384 C 1581.12,1333.1438000000003 1589.48,1319.544846153846 1597.34,1305.6887692307691 C 1602.14,1297.3370307692308 1607.99,1285.747446153846 1613.9,1278.4718153846154"/>

  <path fill="rgb(27,33,42)" d="M 996.237,420.1530830769231 C 1042.0,417.3333 1097.54,420.9673061538462 1140.83,436.0347184615385 C 1161.42,443.19988153846157 1174.55,504.1647153846154 1176.78,523.5613184615385 C 1187.1,613.39536 1164.24,716.4569553846153 1121.51,796.6536430769231 C 1144.39,810.9039753846154 1156.35,821.1841369230768 1174.1,840.6016907692308 C 1266.22,779.6063830769231 1327.87,676.4619369230769 1339.88,570.6272215384616 C 1344.73,527.9657415384615 1368.42,544.8273015384616 1390.2,564.0839153846154 C 1446.07,613.4791630769231 1497.25,675.7467538461538 1519.51,746.1041984615385 C 1524.12,760.6792676923077 1513.99,776.8865923076924 1506.23,788.7428230769232 C 1442.35,881.1109553846154 1336.29,935.6572353846154 1224.81,958.2850184615386 C 1225.45,979.4510092307694 1225.81,1000.0456153846155 1220.34,1020.7011692307692 C 1307.84,1045.0802461538462 1404.89,1037.2713230769232 1488.81,1004.435753846154 C 1499.22,1000.3217846153847 1509.5,995.9297415384616 1519.65,991.2586723076923 C 1527.69,987.4637261538462 1546.51,976.4131476923077 1554.25,975.1018200000001 C 1578.43,971.0088015384616 1572.7,1010.9590615384616 1571.76,1024.7484769230769 C 1567.36,1084.8295692307693 1552.57,1143.8155076923076 1527.99,1199.3159999999998 C 1516.76,1224.2855076923074 1511.18,1240.6747230769229 1479.63,1242.9697846153845 C 1360.78,1251.5881692307692 1250.18,1198.7350923076922 1160.57,1129.4451846153847 C 1143.83,1144.5297384615385 1134.28,1150.7292615384615 1115.18,1162.0045846153848 C 1157.09,1243.236430769231 1227.58,1305.5744923076925 1314.86,1340.2099230769231 C 1332.68,1347.2760461538462 1355.78,1351.7804615384616 1370.87,1361.1035538461538 C 1373.91,1362.9796 1376.07,1368.4839384615384 1376.13,1372.2836461538463 C 1376.32,1382.4162000000001 1368.51,1390.806030769231 1361.54,1397.9197692307694 C 1316.42,1443.9543230769232 1259.71,1480.342 1196.75,1500.0928615384614 C 1185.34,1503.6735384615383 1169.86,1507.3113538461537 1157.8,1507.920830769231 C 1141.39,1508.7588615384618 1127.55,1495.8741384615387 1116.41,1485.5987384615387 C 1030.44,1406.3572153846155 993.379,1302.6794769230773 992.704,1189.9357692307694 L 992.698,1186.3550923076923 C 990.625,1183.7648153846153 971.903,1181.4030923076923 966.632,1180.1650923076922 C 956.24,1177.7176615384615 947.171,1175.0797692307692 937.126,1171.6705076923076 C 898.005,1258.130523076923 890.511,1342.2288153846155 915.208,1433.7170153846155 C 918.916,1454.2582923076923 934.466,1478.970676923077 936.218,1498.9881846153844 C 938.371,1523.576769230769 893.156,1510.1587538461536 882.441,1507.2542153846152 C 810.962,1487.8652307692305 737.318,1455.601046153846 682.256,1407.5666461538462 C 671.358,1398.0530923076924 673.569,1376.464276923077 675.224,1363.9890461538462 C 688.906,1255.7307076923075 751.281,1163.3759076923077 840.108,1096.5715230769233 C 825.62,1073.9446923076925 818.832,1059.8124461538462 811.319,1034.662 C 790.494,1040.223476923077 777.293,1042.7566153846153 756.2,1050.3369846153846 C 683.186,1076.5349692307693 621.147,1124.7122153846153 579.506,1187.5454769230769 C 570.87,1200.4492461538462 560.487,1224.4759692307691 549.44,1234.8466000000003 C 541.206,1242.5698153846156 527.387,1232.1706153846155 522.377,1223.0379846153846 C 486.445,1157.5573076923076 463.943,1082.801153846154 463.949,1008.6068615384615 C 463.684,962.9389461538461 472.682,954.8900415384616 514.071,932.7717430769231 C 606.244,885.2944430769231 714.337,883.4117307692309 813.513,910.592496923077 C 824.191,884.52974 830.544,869.5689861538463 848.826,846.5888492307693 C 779.165,787.13628 687.599,752.5817953846155 592.866,754.24262 C 572.604,753.3903046153846 546.33,760.5411830769231 526.99,757.6623569230769 C 513.554,755.6615584615384 520.587,730.3520769230769 525.233,723.5373630769232 C 529.171,717.7597123076923 532.756,708.8346846153846 536.143,702.6961092307693 C 561.991,655.8616169230769 595.385,613.17252 635.11,576.1820323076923 C 643.526,568.3064476923078 657.442,555.6083769230769 667.702,551.2049061538462 C 684.069,544.1806846153847 724.611,560.2937307692309 741.442,567.3979461538462 C 843.951,610.6698553846155 908.46,681.8243815384616 949.906,778.8407276923077 C 969.464,772.4888353846154 987.729,769.7433323076923 1008.26,769.0014846153847 C 1013.35,677.1256953846155 991.279,586.0079430769231 932.546,511.48796153846155 C 924.308,501.03638461538463 915.285,490.77526923076925 905.828,481.30266461538463 C 899.47,474.9336307692308 891.442,468.7626769230769 886.176,461.5727538461539 C 884.416,459.1691292307693 883.256,456.50362 882.898,453.58194000000003 C 882.439,449.83746615384615 883.318,446.1482261538462 885.932,443.2636861538462 C 898.851,429.0047830769231 974.21,421.85676153846157 996.2370000000001,420.1530830769231"/>

  <circle cx="1019" cy="974" r="600" fill="none" stroke="url(#ring)" stroke-width="37"/>

  <circle cx="473" cy="413" r="41" fill="none" stroke="rgb(18,20,24)" stroke-width="16"/>
  <circle cx="1569" cy="413" r="41" fill="none" stroke="rgb(18,20,24)" stroke-width="16"/>
  <circle cx="1569" cy="1525" r="41" fill="none" stroke="rgb(18,20,24)" stroke-width="16"/>
  <circle cx="472" cy="1525" r="41" fill="none" stroke="rgb(18,20,24)" stroke-width="16"/>
</svg>
