<svg xmlns="http://www.w3.org/2000/svg" width="16" height="16" viewBox="0 0 16 16">
  <path fill="currentColor" fill-rule="evenodd" d="M2.300,1.600 H13.700 A1.300,1.300 0 0 1 15.000,2.900 V5.900 A1.300,1.300 0 0 1 13.700,7.200 H2.300 A1.300,1.300 0 0 1 1.000,5.900 V2.900 A1.300,1.300 0 0 1 2.300,1.600 Z M2.600,2.800 H2.700 A0.200,0.200 0 0 1 2.900,3.000 V5.800 A0.200,0.200 0 0 1 2.700,6.000 H2.600 A0.200,0.200 0 0 1 2.400,5.800 V3.000 A0.200,0.200 0 0 1 2.600,2.800 ZM4.150,2.800 H4.250 A0.200,0.200 0 0 1 4.450,3.000 V5.800 A0.200,0.200 0 0 1 4.250,6.000 H4.150 A0.200,0.200 0 0 1 3.950,5.800 V3.000 A0.200,0.200 0 0 1 4.150,2.800 ZM5.700,2.800 H5.800 A0.200,0.200 0 0 1 6.000,3.000 V5.800 A0.200,0.200 0 0 1 5.800,6.000 H5.700 A0.200,0.200 0 0 1 5.500,5.800 V3.000 A0.200,0.200 0 0 1 5.700,2.800 ZM7.250,2.800 H7.350 A0.200,0.200 0 0 1 7.550,3.000 V5.800 A0.200,0.200 0 0 1 7.350,6.000 H7.250 A0.200,0.200 0 0 1 7.050,5.800 V3.000 A0.200,0.200 0 0 1 7.250,2.800 ZM8.800,2.800 H8.900 A0.200,0.200 0 0 1 9.100,3.000 V5.800 A0.200,0.200 0 0 1 8.900,6.000 H8.800 A0.200,0.200 0 0 1 8.600,5.800 V3.000 A0.200,0.200 0 0 1 8.800,2.800 ZM10.350,2.800 H10.450 A0.200,0.200 0 0 1 10.650,3.000 V5.800 A0.200,0.200 0 0 1 10.450,6.000 H10.350 A0.200,0.200 0 0 1 10.150,5.800 V3.000 A0.200,0.200 0 0 1 10.350,2.800 ZM11.900,2.800 H12.000 A0.200,0.200 0 0 1 12.200,3.000 V5.800 A0.200,0.200 0 0 1 12.000,6.000 H11.900 A0.200,0.200 0 0 1 11.700,5.800 V3.000 A0.200,0.200 0 0 1 11.900,2.800 ZM13.450,2.800 H13.550 A0.200,0.200 0 0 1 13.750,3.000 V5.800 A0.200,0.200 0 0 1 13.550,6.000 H13.450 A0.200,0.200 0 0 1 13.250,5.800 V3.000 A0.200,0.200 0 0 1 13.450,2.800 Z M10.800,10.000 H13.400 A1.200,1.200 0 0 1 14.600,11.200 V13.800 A1.200,1.200 0 0 1 13.400,15.000 H10.800 A1.200,1.200 0 0 1 9.600,13.800 V11.200 A1.200,1.200 0 0 1 10.800,10.000 Z M10.400,12.500 A1.700,1.700 0 1 0 13.800,12.500 A1.700,1.700 0 1 0 10.400,12.500 Z"/>
  <path fill="currentColor" d="M4.2,7.2 C4.2,9.4 4.2,11 6.2,12.0 C7.6,12.7 8.6,12.5 9.6,12.5 L9.6,11.4 C8.6,11.4 7.9,11.5 6.9,11.0 C5.4,10.3 5.4,9.2 5.4,7.2 Z M11.500,12.500 A0.600,0.600 0 1 0 12.700,12.500 A0.600,0.600 0 1 0 11.500,12.500 Z"/>
</svg>
