<svg xmlns="http://www.w3.org/2000/svg" width="16" height="16" viewBox="0 0 16 16">
  <path fill="currentColor" fill-rule="evenodd" d="M3.000,1.000 H13.000 A2.000,2.000 0 0 1 15.000,3.000 V13.000 A2.000,2.000 0 0 1 13.000,15.000 H3.000 A2.000,2.000 0 0 1 1.000,13.000 V3.000 A2.000,2.000 0 0 1 3.000,1.000 Z M3.700,2.300 H12.300 A1.400,1.400 0 0 1 13.700,3.700 V12.300 A1.400,1.400 0 0 1 12.300,13.700 H3.700 A1.400,1.400 0 0 1 2.300,12.300 V3.700 A1.400,1.400 0 0 1 3.700,2.300 Z M2.700,3.400 A0.700,0.700 0 1 0 4.100,3.400 A0.700,0.700 0 1 0 2.700,3.400 ZM11.900,3.400 A0.700,0.700 0 1 0 13.300,3.400 A0.700,0.700 0 1 0 11.900,3.400 ZM2.700,12.600 A0.700,0.700 0 1 0 4.100,12.600 A0.700,0.700 0 1 0 2.700,12.600 ZM11.900,12.600 A0.700,0.700 0 1 0 13.300,12.600 A0.700,0.700 0 1 0 11.900,12.600 Z"/>
  <path fill="currentColor" d="M9.840,7.807 C11.596,7.749 12.856,8.596 13.644,9.097 A5.750,5.750 0 0 1 12.592,11.460 C11.692,11.209 11.570,8.502 9.840,8.193 A1.850,1.850 0 0 0 9.840,7.807 ZM9.534,9.035 C10.917,10.119 11.336,11.578 11.619,12.469 A5.750,5.750 0 0 1 9.293,13.603 C8.765,12.832 10.412,10.679 9.285,9.331 A1.850,1.850 0 0 0 9.534,9.035 ZM8.510,9.778 C8.872,11.498 8.256,12.885 7.900,13.749 A5.750,5.750 0 0 1 5.390,13.123 C5.480,12.193 8.126,11.603 8.129,9.845 A1.850,1.850 0 0 0 8.510,9.778 ZM7.248,9.690 C6.420,11.240 5.056,11.907 4.228,12.340 A5.750,5.750 0 0 1 2.707,10.247 C3.375,9.593 5.781,10.841 6.913,9.497 A1.850,1.850 0 0 0 7.248,9.690 ZM6.337,8.811 C4.707,9.466 3.233,9.100 2.321,8.899 A5.750,5.750 0 0 1 2.501,6.319 C3.433,6.247 4.474,8.750 6.205,8.448 A1.850,1.850 0 0 0 6.337,8.811 ZM6.205,7.552 C4.535,7.006 3.641,5.779 3.071,5.039 A5.750,5.750 0 0 1 4.868,3.178 C5.628,3.721 4.817,6.308 6.337,7.189 A1.850,1.850 0 0 0 6.205,7.552 ZM6.913,6.503 C5.984,5.011 6.089,3.497 6.128,2.563 A5.750,5.750 0 0 1 8.701,2.293 C8.933,3.198 6.650,4.658 7.248,6.310 A1.850,1.850 0 0 0 6.913,6.503 ZM8.129,6.155 C8.377,4.415 9.430,3.322 10.061,2.632 A5.750,5.750 0 0 1 12.205,4.079 C11.802,4.921 9.114,4.571 8.510,6.222 A1.850,1.850 0 0 0 8.129,6.155 ZM9.285,6.669 C10.593,5.496 12.103,5.336 13.029,5.212 A5.750,5.750 0 0 1 13.742,7.699 C12.891,8.085 11.057,6.090 9.534,6.965 A1.850,1.850 0 0 0 9.285,6.669 Z M6.750,8.000 A1.250,1.250 0 1 0 9.250,8.000 A1.250,1.250 0 1 0 6.750,8.000 Z"/>
</svg>
