<svg xmlns="http://www.w3.org/2000/svg" width="16" height="16" viewBox="0 0 16 16">
  <path fill="currentColor" fill-rule="evenodd" d="M2.500,4.000 H13.500 A1.500,1.500 0 0 1 15.000,5.500 V10.500 A1.500,1.500 0 0 1 13.500,12.000 H2.500 A1.500,1.500 0 0 1 1.000,10.500 V5.500 A1.500,1.500 0 0 1 2.500,4.000 Z M0.700,5.000 H1.000 A0.300,0.300 0 0 1 1.300,5.300 V8.700 A0.300,0.300 0 0 1 1.000,9.000 H0.700 A0.300,0.300 0 0 1 0.400,8.700 V5.300 A0.300,0.300 0 0 1 0.700,5.000 Z M2.600,8.000 A2.700,2.700 0 1 0 8.000,8.000 A2.700,2.700 0 1 0 2.600,8.000 Z M9.250,5.400 H9.300 A0.250,0.250 0 0 1 9.550,5.650 V10.350 A0.250,0.250 0 0 1 9.300,10.600 H9.250 A0.250,0.250 0 0 1 9.000,10.350 V5.650 A0.250,0.250 0 0 1 9.250,5.400 ZM10.700,5.400 H10.750 A0.250,0.250 0 0 1 11.000,5.650 V10.350 A0.250,0.250 0 0 1 10.750,10.600 H10.700 A0.250,0.250 0 0 1 10.450,10.350 V5.650 A0.250,0.250 0 0 1 10.700,5.400 ZM12.150,5.400 H12.200 A0.250,0.250 0 0 1 12.450,5.650 V10.350 A0.250,0.250 0 0 1 12.200,10.600 H12.150 A0.250,0.250 0 0 1 11.900,10.350 V5.650 A0.250,0.250 0 0 1 12.150,5.400 ZM13.600,5.400 H13.650 A0.250,0.250 0 0 1 13.900,5.650 V10.350 A0.250,0.250 0 0 1 13.650,10.600 H13.600 A0.250,0.250 0 0 1 13.350,10.350 V5.650 A0.250,0.250 0 0 1 13.600,5.400 Z M2.150,12.000 H2.650 A0.150,0.150 0 0 1 2.800,12.150 V13.050 A0.150,0.150 0 0 1 2.650,13.200 H2.150 A0.150,0.150 0 0 1 2.000,13.050 V12.150 A0.150,0.150 0 0 1 2.150,12.000 ZM3.450,12.000 H3.950 A0.150,0.150 0 0 1 4.100,12.150 V13.050 A0.150,0.150 0 0 1 3.950,13.200 H3.450 A0.150,0.150 0 0 1 3.300,13.050 V12.150 A0.150,0.150 0 0 1 3.450,12.000 ZM4.750,12.000 H5.250 A0.150,0.150 0 0 1 5.400,12.150 V13.050 A0.150,0.150 0 0 1 5.250,13.200 H4.750 A0.150,0.150 0 0 1 4.600,13.050 V12.150 A0.150,0.150 0 0 1 4.750,12.000 Z"/>
  <path fill="currentColor" d="M4.500,8.000 A0.800,0.800 0 1 0 6.100,8.000 A0.800,0.800 0 1 0 4.500,8.000 Z"/>
</svg>
