<svg xmlns="http://www.w3.org/2000/svg" width="16" height="16" viewBox="0 0 16 16">
  <path fill="currentColor" fill-rule="evenodd" d="M2.600,1.000 H13.400 A1.600,1.600 0 0 1 15.000,2.600 V13.400 A1.600,1.600 0 0 1 13.400,15.000 H2.600 A1.600,1.600 0 0 1 1.000,13.400 V2.600 A1.600,1.600 0 0 1 2.600,1.000 Z M3.800,3.200 H7.000 A0.600,0.600 0 0 1 7.600,3.800 V7.000 A0.600,0.600 0 0 1 7.000,7.600 H3.800 A0.600,0.600 0 0 1 3.200,7.000 V3.800 A0.600,0.600 0 0 1 3.800,3.200 Z M9.120,2.800 H9.380 A0.220,0.220 0 0 1 9.600,3.020 V7.780 A0.220,0.220 0 0 1 9.380,8.000 H9.120 A0.220,0.220 0 0 1 8.900,7.780 V3.020 A0.220,0.220 0 0 1 9.120,2.800 ZM10.270,2.800 H10.530 A0.220,0.220 0 0 1 10.750,3.020 V7.780 A0.220,0.220 0 0 1 10.530,8.000 H10.270 A0.220,0.220 0 0 1 10.050,7.780 V3.020 A0.220,0.220 0 0 1 10.270,2.800 ZM11.420,2.800 H11.680 A0.220,0.220 0 0 1 11.900,3.020 V7.780 A0.220,0.220 0 0 1 11.680,8.000 H11.420 A0.220,0.220 0 0 1 11.200,7.780 V3.020 A0.220,0.220 0 0 1 11.420,2.800 ZM12.570,2.800 H12.830 A0.220,0.220 0 0 1 13.050,3.020 V7.780 A0.220,0.220 0 0 1 12.830,8.000 H12.570 A0.220,0.220 0 0 1 12.350,7.780 V3.020 A0.220,0.220 0 0 1 12.570,2.800 Z M3.800,9.600 H5.600 A0.400,0.400 0 0 1 6.000,10.000 V11.800 A0.400,0.400 0 0 1 5.600,12.200 H3.800 A0.400,0.400 0 0 1 3.400,11.800 V10.000 A0.400,0.400 0 0 1 3.800,9.600 Z M9.500,9.800 H10.000 A0.300,0.300 0 0 1 10.300,10.100 V11.900 A0.300,0.300 0 0 1 10.000,12.200 H9.500 A0.300,0.300 0 0 1 9.200,11.900 V10.100 A0.300,0.300 0 0 1 9.500,9.800 ZM11.200,9.800 H11.700 A0.300,0.300 0 0 1 12.000,10.100 V11.900 A0.300,0.300 0 0 1 11.700,12.200 H11.200 A0.300,0.300 0 0 1 10.900,11.900 V10.100 A0.300,0.300 0 0 1 11.200,9.800 Z"/>
  <path fill="currentColor" d="M4.700,4.400 H6.100 A0.300,0.300 0 0 1 6.400,4.700 V6.100 A0.300,0.300 0 0 1 6.100,6.400 H4.700 A0.300,0.300 0 0 1 4.400,6.100 V4.700 A0.300,0.300 0 0 1 4.700,4.400 Z M4.300,10.300 H5.100 A0.200,0.200 0 0 1 5.300,10.500 V11.300 A0.200,0.200 0 0 1 5.100,11.500 H4.300 A0.200,0.200 0 0 1 4.100,11.300 V10.500 A0.200,0.200 0 0 1 4.300,10.300 Z"/>
</svg>
