<svg xmlns="http://www.w3.org/2000/svg" width="16" height="16" viewBox="0 0 16 16">
  <path fill="currentColor" fill-rule="evenodd" d="M2.600,2.000 H13.400 A0.900,0.900 0 0 1 14.300,2.900 V3.000 A0.900,0.900 0 0 1 13.400,3.900 H2.600 A0.900,0.900 0 0 1 1.700,3.000 V2.900 A0.900,0.900 0 0 1 2.600,2.000 Z M3.180,2.350 H3.320 A0.180,0.180 0 0 1 3.500,2.530 V3.370 A0.180,0.180 0 0 1 3.320,3.550 H3.180 A0.180,0.180 0 0 1 3.000,3.370 V2.530 A0.180,0.180 0 0 1 3.180,2.350 ZM5.180,2.350 H5.320 A0.180,0.180 0 0 1 5.500,2.530 V3.370 A0.180,0.180 0 0 1 5.320,3.550 H5.180 A0.180,0.180 0 0 1 5.000,3.370 V2.530 A0.180,0.180 0 0 1 5.180,2.350 ZM7.180,2.350 H7.320 A0.180,0.180 0 0 1 7.500,2.530 V3.370 A0.180,0.180 0 0 1 7.320,3.550 H7.180 A0.180,0.180 0 0 1 7.000,3.370 V2.530 A0.180,0.180 0 0 1 7.180,2.350 ZM9.180,2.350 H9.320 A0.180,0.180 0 0 1 9.500,2.530 V3.370 A0.180,0.180 0 0 1 9.320,3.550 H9.180 A0.180,0.180 0 0 1 9.000,3.370 V2.530 A0.180,0.180 0 0 1 9.180,2.350 ZM11.180,2.350 H11.320 A0.180,0.180 0 0 1 11.500,2.530 V3.370 A0.180,0.180 0 0 1 11.320,3.550 H11.180 A0.180,0.180 0 0 1 11.000,3.370 V2.530 A0.180,0.180 0 0 1 11.180,2.350 ZM13.180,2.350 H13.320 A0.180,0.180 0 0 1 13.500,2.530 V3.370 A0.180,0.180 0 0 1 13.320,3.550 H13.180 A0.180,0.180 0 0 1 13.000,3.370 V2.530 A0.180,0.180 0 0 1 13.180,2.350 Z"/>
  <path fill="currentColor" fill-rule="evenodd" d="M2.000,4.500 H14.000 A1.000,1.000 0 0 1 15.000,5.500 V9.600 A1.000,1.000 0 0 1 14.000,10.600 H2.000 A1.000,1.000 0 0 1 1.000,9.600 V5.500 A1.000,1.000 0 0 1 2.000,4.500 Z M3.077,5.708 L4.240,8.903 L3.723,9.092 L2.560,5.897 ZM5.577,5.708 L6.740,8.903 L6.223,9.092 L5.060,5.897 ZM8.077,5.708 L9.240,8.903 L8.723,9.092 L7.560,5.897 ZM10.577,5.708 L11.740,8.903 L11.223,9.092 L10.060,5.897 Z M8.720,10.600 H9.580 A0.220,0.220 0 0 1 9.800,10.820 V11.680 A0.220,0.220 0 0 1 9.580,11.900 H8.720 A0.220,0.220 0 0 1 8.500,11.680 V10.820 A0.220,0.220 0 0 1 8.720,10.600 Z"/>
  <path fill="currentColor" d="M2.000,10.700 H2.320 A0.100,0.100 0 0 1 2.420,10.800 V12.100 A0.100,0.100 0 0 1 2.320,12.200 H2.000 A0.100,0.100 0 0 1 1.900,12.100 V10.800 A0.100,0.100 0 0 1 2.000,10.700 ZM2.920,10.700 H3.240 A0.100,0.100 0 0 1 3.340,10.800 V12.100 A0.100,0.100 0 0 1 3.240,12.200 H2.920 A0.100,0.100 0 0 1 2.820,12.100 V10.800 A0.100,0.100 0 0 1 2.920,10.700 ZM3.840,10.700 H4.160 A0.100,0.100 0 0 1 4.260,10.800 V12.100 A0.100,0.100 0 0 1 4.160,12.200 H3.840 A0.100,0.100 0 0 1 3.740,12.100 V10.800 A0.100,0.100 0 0 1 3.840,10.700 ZM4.760,10.700 H5.080 A0.100,0.100 0 0 1 5.180,10.800 V12.100 A0.100,0.100 0 0 1 5.080,12.200 H4.760 A0.100,0.100 0 0 1 4.660,12.100 V10.800 A0.100,0.100 0 0 1 4.760,10.700 ZM5.680,10.700 H6.000 A0.100,0.100 0 0 1 6.100,10.800 V12.100 A0.100,0.100 0 0 1 6.000,12.200 H5.680 A0.100,0.100 0 0 1 5.580,12.100 V10.800 A0.100,0.100 0 0 1 5.680,10.700 ZM6.600,10.700 H6.920 A0.100,0.100 0 0 1 7.020,10.800 V12.100 A0.100,0.100 0 0 1 6.920,12.200 H6.600 A0.100,0.100 0 0 1 6.500,12.100 V10.800 A0.100,0.100 0 0 1 6.600,10.700 ZM7.520,10.700 H7.840 A0.100,0.100 0 0 1 7.940,10.800 V12.100 A0.100,0.100 0 0 1 7.840,12.200 H7.520 A0.100,0.100 0 0 1 7.420,12.100 V10.800 A0.100,0.100 0 0 1 7.520,10.700 ZM10.280,10.700 H10.600 A0.100,0.100 0 0 1 10.700,10.800 V12.100 A0.100,0.100 0 0 1 10.600,12.200 H10.280 A0.100,0.100 0 0 1 10.180,12.100 V10.800 A0.100,0.100 0 0 1 10.280,10.700 ZM11.200,10.700 H11.520 A0.100,0.100 0 0 1 11.620,10.800 V12.100 A0.100,0.100 0 0 1 11.520,12.200 H11.200 A0.100,0.100 0 0 1 11.100,12.100 V10.800 A0.100,0.100 0 0 1 11.200,10.700 ZM12.120,10.700 H12.440 A0.100,0.100 0 0 1 12.540,10.800 V12.100 A0.100,0.100 0 0 1 12.440,12.200 H12.120 A0.100,0.100 0 0 1 12.020,12.100 V10.800 A0.100,0.100 0 0 1 12.120,10.700 ZM13.040,10.700 H13.360 A0.100,0.100 0 0 1 13.460,10.800 V12.100 A0.100,0.100 0 0 1 13.360,12.200 H13.040 A0.100,0.100 0 0 1 12.940,12.100 V10.800 A0.100,0.100 0 0 1 13.040,10.700 Z"/>
</svg>
