<svg xmlns="http://www.w3.org/2000/svg" width="16" height="16" viewBox="0 0 16 16">
  <path fill="currentColor" fill-rule="evenodd" d="M2.683,6.771 L2.913,7.029 L3.126,7.260 L3.316,7.456 L3.479,7.609 L3.606,7.713 L3.686,7.768 L3.707,7.779 L3.664,7.765 L3.570,7.751 L3.462,7.754 L3.382,7.771 L3.360,7.779 L3.401,7.755 L3.498,7.684 L3.638,7.563 L3.811,7.395 L4.010,7.187 L4.228,6.946 L4.464,6.680 L4.718,6.398 L4.992,6.105 L5.288,5.809 L5.614,5.517 L5.980,5.235 L6.398,4.975 L6.877,4.756 L7.418,4.605 L8.000,4.550 L8.582,4.605 L9.123,4.756 L9.602,4.975 L10.020,5.235 L10.386,5.517 L10.712,5.809 L11.008,6.105 L11.282,6.398 L11.536,6.680 L11.772,6.946 L11.990,7.187 L12.189,7.395 L12.362,7.563 L12.502,7.684 L12.599,7.755 L12.640,7.779 L12.618,7.771 L12.538,7.754 L12.430,7.751 L12.336,7.765 L12.293,7.779 L12.314,7.768 L12.394,7.713 L12.521,7.609 L12.684,7.456 L12.874,7.260 L13.087,7.029 L13.317,6.771 L16.083,9.229 L15.835,9.507 L15.568,9.797 L15.280,10.092 L14.965,10.387 L14.613,10.673 L14.215,10.942 L13.757,11.177 L13.235,11.354 L12.663,11.444 L12.076,11.425 L11.518,11.304 L11.017,11.104 L10.580,10.855 L10.198,10.579 L9.860,10.289 L9.554,9.993 L9.274,9.699 L9.014,9.412 L8.772,9.140 L8.547,8.890 L8.342,8.670 L8.160,8.488 L8.007,8.351 L7.895,8.263 L7.833,8.225 L7.834,8.224 L7.897,8.241 L8.000,8.250 L8.103,8.241 L8.166,8.224 L8.167,8.225 L8.105,8.263 L7.993,8.351 L7.840,8.488 L7.658,8.670 L7.453,8.890 L7.228,9.140 L6.986,9.412 L6.726,9.699 L6.446,9.993 L6.140,10.289 L5.802,10.579 L5.420,10.855 L4.983,11.104 L4.482,11.304 L3.924,11.425 L3.337,11.444 L2.765,11.354 L2.243,11.177 L1.785,10.942 L1.387,10.673 L1.035,10.387 L0.720,10.092 L0.432,9.797 L0.165,9.507 L-0.083,9.229 Z M2.434,8.186 L3.334,8.903 L2.400,10.076 L1.500,9.360 ZM3.733,8.903 L4.633,8.186 L5.567,9.360 L4.667,10.076 ZM5.966,6.640 L6.866,5.924 L7.800,7.097 L6.900,7.814 ZM9.134,5.924 L10.034,6.640 L9.100,7.814 L8.200,7.097 ZM11.367,8.186 L12.267,8.903 L11.333,10.076 L10.433,9.360 ZM12.666,8.903 L13.566,8.186 L14.500,9.360 L13.600,10.076 Z"/>
</svg>
